<svg xmlns="http://www.w3.org/2000/svg" xmlns:xlink="http://www.w3.org/1999/xlink" width="19" height="20" viewBox="0 0 19 20">
    <defs>
        <filter id="prefix__a" width="169.1%" height="163.3%" x="-34.5%" y="-24%" filterUnits="objectBoundingBox">
            <feMorphology in="SourceAlpha" operator="dilate" radius="1" result="shadowSpreadOuter1"/>
            <feOffset dy="1" in="shadowSpreadOuter1" result="shadowOffsetOuter1"/>
            <feGaussianBlur in="shadowOffsetOuter1" result="shadowBlurOuter1" stdDeviation="1"/>
            <feComposite in="shadowBlurOuter1" in2="SourceAlpha" operator="out" result="shadowBlurOuter1"/>
            <feColorMatrix in="shadowBlurOuter1" values="0 0 0 0 0 0 0 0 0 0 0 0 0 0 0 0 0 0 1 0"/>
        </filter>
        <path id="prefix__b" d="M290 26s-2.206-1.699-2.982-3c-.776-1.301-2.247-2.959-1.988-4 .259-1.041 1.212-1.37 1.988-.588.776.78 1.299 2.472 1.816 2.212.517-.26.13-2.733-.388-4.164-.517-1.432-1.057-4.46 0-4.46s1.057 1 1.554 2.5c.497 1.5.109 3.5.497 3.5s.536-.35.536-1c0-.177.034-.326.104-.45.188-.332.63-.48 1.348-.48.985 0 .497 1.93.993 1.93.497 0 .497.041.497-1s.461-.93 1.455-.93.513 1.93 1.03 1.93c.518 0 0-1 .497-1s.994.158.994 2.5.28 2.459-.497 3.5l-1.49 2s0 1-.534 1c-.533 0-.808-1-1.455-1-.646 0-.993 1-.993 1H290zm5.963-2v-4h-.994v4h.994zm-2.981-1c0 .27.23 1 .496 1 .275 0 .497-.725.497-1v-2c0-.27-.23-1-.497-1-.274 0-.496.725-.496 1v2zm-1.988 0c0 .27.23 1 .497 1 .274 0 .497-.725.497-1v-2c0-.27-.23-1-.497-1-.275 0-.497.725-.497 1v2z"/>
    </defs>
    <g fill="none" fill-rule="evenodd" transform="translate(-282 -10)">
        <use fill="#000" filter="url(#prefix__a)" xlink:href="#prefix__b"/>
        <path fill="#FFF" stroke="#000" d="M296.586 16.78c-.048-.255-.118-.499-.232-.687-.191-.317-.479-.524-1.18-.525-.609-.007-1.008.048-1.266.25-.158.122-.293.297-.368.591-.036-.112-.08-.216-.133-.307-.189-.323-.476-.533-.922-.533-.498 0-.884.076-1.2.278-.186.12-.353.283-.507.562-.023-.654-.085-1.405-.304-2.066-.102-.308-.182-.594-.255-.854-.18-.64-.34-1.134-.594-1.454-.253-.318-.559-.57-1.73-.363-.14.1-.261.243-.352.432-.134.278-.204.684-.204 1.16 0 1.055.321 2.493.637 3.366.267.74.498 1.772.576 2.602.03.332.038.63.24.91-.16-.163-.319-.452-.5-.762-.271-.466-.575-.974-.92-1.32-.248-.251-.513-.412-.773-.499-.31-.103-.616-.105-.898-.022-.514.152-.972.6-1.156 1.34-.215.866.538 2.138 1.368 3.35.243.354.482.702.676 1.027.81 1.358 3.106 3.14 3.242 3.244l3.623-.336s.115-.664.521-.664c.201 0 .304.225.423.363.323.375.655.637 1.032.637.195 0 .358-.058.817-.524.135-.254.186-.59.205-.795l1.403-1.882c.669-.897.676-1.192.628-2.424-.014-.352-.032-.794-.032-1.375 0-1.1-.113-1.757-.27-2.152-.13-.33-.3-.52-.473-.64-.207-.145-.432-.197-1.122.072z"/>
    </g>
</svg>
